<svg xmlns="http://www.w3.org/2000/svg" viewBox="0 0 25 25" shape-rendering="crispEdges"><rect x="0" y="0" width="7" height="1" fill="#E8856A"/><rect x="9" y="0" width="2" height="1" fill="#E8856A"/><rect x="12" y="0" width="1" height="1" fill="#E8856A"/><rect x="14" y="0" width="2" height="1" fill="#E8856A"/><rect x="18" y="0" width="7" height="1" fill="#E8856A"/><rect x="0" y="1" width="1" height="1" fill="#E8856A"/><rect x="6" y="1" width="1" height="1" fill="#E8856A"/><rect x="8" y="1" width="1" height="1" fill="#E8856A"/><rect x="11" y="1" width="5" height="1" fill="#E8856A"/><rect x="18" y="1" width="1" height="1" fill="#E8856A"/><rect x="24" y="1" width="1" height="1" fill="#E8856A"/><rect x="0" y="2" width="1" height="1" fill="#E8856A"/><rect x="2" y="2" width="3" height="1" fill="#E8856A"/><rect x="6" y="2" width="1" height="1" fill="#E8856A"/><rect x="9" y="2" width="1" height="1" fill="#E8856A"/><rect x="11" y="2" width="1" height="1" fill="#E8856A"/><rect x="15" y="2" width="1" height="1" fill="#E8856A"/><rect x="18" y="2" width="1" height="1" fill="#E8856A"/><rect x="20" y="2" width="3" height="1" fill="#E8856A"/><rect x="24" y="2" width="1" height="1" fill="#E8856A"/><rect x="0" y="3" width="1" height="1" fill="#E8856A"/><rect x="2" y="3" width="3" height="1" fill="#E8856A"/><rect x="6" y="3" width="1" height="1" fill="#E8856A"/><rect x="9" y="3" width="4" height="1" fill="#E8856A"/><rect x="14" y="3" width="3" height="1" fill="#E8856A"/><rect x="18" y="3" width="1" height="1" fill="#E8856A"/><rect x="20" y="3" width="3" height="1" fill="#E8856A"/><rect x="24" y="3" width="1" height="1" fill="#E8856A"/><rect x="0" y="4" width="1" height="1" fill="#E8856A"/><rect x="2" y="4" width="3" height="1" fill="#E8856A"/><rect x="6" y="4" width="1" height="1" fill="#E8856A"/><rect x="8" y="4" width="2" height="1" fill="#E8856A"/><rect x="11" y="4" width="1" height="1" fill="#E8856A"/><rect x="15" y="4" width="1" height="1" fill="#E8856A"/><rect x="18" y="4" width="1" height="1" fill="#E8856A"/><rect x="20" y="4" width="3" height="1" fill="#E8856A"/><rect x="24" y="4" width="1" height="1" fill="#E8856A"/><rect x="0" y="5" width="1" height="1" fill="#E8856A"/><rect x="6" y="5" width="1" height="1" fill="#E8856A"/><rect x="10" y="5" width="2" height="1" fill="#E8856A"/><rect x="15" y="5" width="1" height="1" fill="#E8856A"/><rect x="18" y="5" width="1" height="1" fill="#E8856A"/><rect x="24" y="5" width="1" height="1" fill="#E8856A"/><rect x="0" y="6" width="7" height="1" fill="#E8856A"/><rect x="8" y="6" width="1" height="1" fill="#E8856A"/><rect x="10" y="6" width="1" height="1" fill="#E8856A"/><rect x="12" y="6" width="1" height="1" fill="#E8856A"/><rect x="14" y="6" width="1" height="1" fill="#E8856A"/><rect x="16" y="6" width="1" height="1" fill="#E8856A"/><rect x="18" y="6" width="7" height="1" fill="#E8856A"/><rect x="10" y="7" width="2" height="1" fill="#E8856A"/><rect x="13" y="7" width="1" height="1" fill="#E8856A"/><rect x="16" y="7" width="1" height="1" fill="#E8856A"/><rect x="0" y="8" width="1" height="1" fill="#E8856A"/><rect x="2" y="8" width="1" height="1" fill="#E8856A"/><rect x="4" y="8" width="1" height="1" fill="#E8856A"/><rect x="6" y="8" width="1" height="1" fill="#E8856A"/><rect x="10" y="8" width="1" height="1" fill="#E8856A"/><rect x="12" y="8" width="2" height="1" fill="#E8856A"/><rect x="15" y="8" width="2" height="1" fill="#E8856A"/><rect x="20" y="8" width="1" height="1" fill="#E8856A"/><rect x="23" y="8" width="1" height="1" fill="#E8856A"/><rect x="0" y="9" width="3" height="1" fill="#E8856A"/><rect x="5" y="9" width="1" height="1" fill="#E8856A"/><rect x="9" y="9" width="5" height="1" fill="#E8856A"/><rect x="17" y="9" width="2" height="1" fill="#E8856A"/><rect x="24" y="9" width="1" height="1" fill="#E8856A"/><rect x="0" y="10" width="1" height="1" fill="#E8856A"/><rect x="2" y="10" width="3" height="1" fill="#E8856A"/><rect x="6" y="10" width="2" height="1" fill="#E8856A"/><rect x="9" y="10" width="6" height="1" fill="#E8856A"/><rect x="16" y="10" width="1" height="1" fill="#E8856A"/><rect x="20" y="10" width="1" height="1" fill="#E8856A"/><rect x="22" y="10" width="3" height="1" fill="#E8856A"/><rect x="0" y="11" width="1" height="1" fill="#E8856A"/><rect x="5" y="11" width="1" height="1" fill="#E8856A"/><rect x="7" y="11" width="2" height="1" fill="#E8856A"/><rect x="11" y="11" width="1" height="1" fill="#E8856A"/><rect x="13" y="11" width="4" height="1" fill="#E8856A"/><rect x="19" y="11" width="1" height="1" fill="#E8856A"/><rect x="23" y="11" width="1" height="1" fill="#E8856A"/><rect x="1" y="12" width="2" height="1" fill="#E8856A"/><rect x="4" y="12" width="1" height="1" fill="#E8856A"/><rect x="6" y="12" width="8" height="1" fill="#E8856A"/><rect x="15" y="12" width="5" height="1" fill="#E8856A"/><rect x="21" y="12" width="1" height="1" fill="#E8856A"/><rect x="23" y="12" width="2" height="1" fill="#E8856A"/><rect x="2" y="13" width="3" height="1" fill="#E8856A"/><rect x="7" y="13" width="3" height="1" fill="#E8856A"/><rect x="11" y="13" width="1" height="1" fill="#E8856A"/><rect x="13" y="13" width="1" height="1" fill="#E8856A"/><rect x="16" y="13" width="3" height="1" fill="#E8856A"/><rect x="21" y="13" width="1" height="1" fill="#E8856A"/><rect x="24" y="13" width="1" height="1" fill="#E8856A"/><rect x="0" y="14" width="1" height="1" fill="#E8856A"/><rect x="2" y="14" width="1" height="1" fill="#E8856A"/><rect x="4" y="14" width="1" height="1" fill="#E8856A"/><rect x="6" y="14" width="3" height="1" fill="#E8856A"/><rect x="10" y="14" width="1" height="1" fill="#E8856A"/><rect x="12" y="14" width="1" height="1" fill="#E8856A"/><rect x="18" y="14" width="2" height="1" fill="#E8856A"/><rect x="22" y="14" width="3" height="1" fill="#E8856A"/><rect x="1" y="15" width="2" height="1" fill="#E8856A"/><rect x="4" y="15" width="2" height="1" fill="#E8856A"/><rect x="9" y="15" width="3" height="1" fill="#E8856A"/><rect x="13" y="15" width="4" height="1" fill="#E8856A"/><rect x="18" y="15" width="1" height="1" fill="#E8856A"/><rect x="20" y="15" width="1" height="1" fill="#E8856A"/><rect x="23" y="15" width="1" height="1" fill="#E8856A"/><rect x="0" y="16" width="1" height="1" fill="#E8856A"/><rect x="2" y="16" width="2" height="1" fill="#E8856A"/><rect x="5" y="16" width="5" height="1" fill="#E8856A"/><rect x="13" y="16" width="1" height="1" fill="#E8856A"/><rect x="16" y="16" width="6" height="1" fill="#E8856A"/><rect x="8" y="17" width="2" height="1" fill="#E8856A"/><rect x="12" y="17" width="1" height="1" fill="#E8856A"/><rect x="16" y="17" width="1" height="1" fill="#E8856A"/><rect x="20" y="17" width="2" height="1" fill="#E8856A"/><rect x="23" y="17" width="2" height="1" fill="#E8856A"/><rect x="0" y="18" width="7" height="1" fill="#E8856A"/><rect x="9" y="18" width="1" height="1" fill="#E8856A"/><rect x="12" y="18" width="1" height="1" fill="#E8856A"/><rect x="15" y="18" width="2" height="1" fill="#E8856A"/><rect x="18" y="18" width="1" height="1" fill="#E8856A"/><rect x="20" y="18" width="2" height="1" fill="#E8856A"/><rect x="23" y="18" width="2" height="1" fill="#E8856A"/><rect x="0" y="19" width="1" height="1" fill="#E8856A"/><rect x="6" y="19" width="1" height="1" fill="#E8856A"/><rect x="11" y="19" width="1" height="1" fill="#E8856A"/><rect x="13" y="19" width="1" height="1" fill="#E8856A"/><rect x="16" y="19" width="1" height="1" fill="#E8856A"/><rect x="20" y="19" width="2" height="1" fill="#E8856A"/><rect x="23" y="19" width="2" height="1" fill="#E8856A"/><rect x="0" y="20" width="1" height="1" fill="#E8856A"/><rect x="2" y="20" width="3" height="1" fill="#E8856A"/><rect x="6" y="20" width="1" height="1" fill="#E8856A"/><rect x="8" y="20" width="3" height="1" fill="#E8856A"/><rect x="13" y="20" width="2" height="1" fill="#E8856A"/><rect x="16" y="20" width="6" height="1" fill="#E8856A"/><rect x="0" y="21" width="1" height="1" fill="#E8856A"/><rect x="2" y="21" width="3" height="1" fill="#E8856A"/><rect x="6" y="21" width="1" height="1" fill="#E8856A"/><rect x="12" y="21" width="1" height="1" fill="#E8856A"/><rect x="15" y="21" width="2" height="1" fill="#E8856A"/><rect x="19" y="21" width="4" height="1" fill="#E8856A"/><rect x="0" y="22" width="1" height="1" fill="#E8856A"/><rect x="2" y="22" width="3" height="1" fill="#E8856A"/><rect x="6" y="22" width="1" height="1" fill="#E8856A"/><rect x="8" y="22" width="2" height="1" fill="#E8856A"/><rect x="13" y="22" width="1" height="1" fill="#E8856A"/><rect x="15" y="22" width="2" height="1" fill="#E8856A"/><rect x="20" y="22" width="1" height="1" fill="#E8856A"/><rect x="24" y="22" width="1" height="1" fill="#E8856A"/><rect x="0" y="23" width="1" height="1" fill="#E8856A"/><rect x="6" y="23" width="1" height="1" fill="#E8856A"/><rect x="11" y="23" width="1" height="1" fill="#E8856A"/><rect x="13" y="23" width="1" height="1" fill="#E8856A"/><rect x="15" y="23" width="2" height="1" fill="#E8856A"/><rect x="20" y="23" width="2" height="1" fill="#E8856A"/><rect x="23" y="23" width="1" height="1" fill="#E8856A"/><rect x="0" y="24" width="7" height="1" fill="#E8856A"/><rect x="8" y="24" width="2" height="1" fill="#E8856A"/><rect x="12" y="24" width="2" height="1" fill="#E8856A"/><rect x="15" y="24" width="5" height="1" fill="#E8856A"/><rect x="23" y="24" width="2" height="1" fill="#E8856A"/></svg>